<?xml version="1.0" encoding="utf-8"?>
<!-- Generator: Adobe Illustrator 22.1.0, SVG Export Plug-In . SVG Version: 6.00 Build 0)  -->
<svg version="1.1" id="Layer_2" xmlns="http://www.w3.org/2000/svg" xmlns:xlink="http://www.w3.org/1999/xlink" x="0px" y="0px"
	 viewBox="0 0 279 108" style="enable-background:new 0 0 279 108;" xml:space="preserve">
<style type="text/css">
	.st0{fill:#285BA7;}
	.st1{fill:#96C13D;}
	.st2{fill:#434544;}
</style>
<g>
	<g>
		<path class="st0" d="M34.06,43.49h6.93L52.26,61l11.27-17.51h6.93v28.42c4.45-4.6,7.2-10.86,7.2-17.76
			c0-14.1-11.43-25.53-25.53-25.53c-14.1,0-25.53,11.43-25.53,25.53c0,7.04,2.85,13.41,7.46,18.03V43.49z"/>
		<path class="st0" d="M63.95,53.96L52.26,71.42h-0.21L40.46,54.07v22.79c3.5,1.8,7.46,2.83,11.67,2.83c4.27,0,8.29-1.05,11.82-2.9
			V53.96z"/>
	</g>
	<path class="st1" d="M75.82,77.3c0,0-0.38,0.33-1.08,0.96c-0.35,0.31-0.79,0.7-1.3,1.15c-0.53,0.41-1.16,0.85-1.85,1.36
		c-0.67,0.53-1.51,1-2.41,1.53c-0.45,0.26-0.9,0.56-1.41,0.81c-0.51,0.24-1.04,0.48-1.58,0.74c-2.16,1.04-4.77,1.82-7.64,2.41
		c-1.46,0.17-2.96,0.49-4.55,0.46c-0.77,0-1.63,0.1-2.37,0.03c-0.84-0.06-1.69-0.12-2.55-0.18c-3.28-0.4-6.72-1.25-10.04-2.76
		c-6.64-2.97-12.51-8.66-15.75-15.61c-1.63-3.47-2.63-7.21-2.98-10.95c-0.04-0.94-0.07-1.87-0.11-2.8l-0.01-0.27l0.02-0.37
		l0.04-0.73l0.08-1.46c0.01-0.5,0.08-0.94,0.16-1.37l0.2-1.31c0.09-0.87,0.38-1.74,0.58-2.61c0.91-3.44,2.38-6.59,4.16-9.31
		c1.76-2.75,3.93-4.98,6.08-6.8c1.06-0.95,2.2-1.69,3.26-2.42c0.53-0.37,1.1-0.64,1.62-0.95c0.54-0.28,1.03-0.63,1.56-0.84
		c2.07-0.99,3.97-1.64,5.54-2.09c0.8-0.21,1.51-0.39,2.12-0.55c0.35-0.07,0.67-0.12,0.96-0.18l0.02,3.74l10.33-6.05l-10.4-5.92
		l0.02,3.87c-0.5,0.07-1.11,0.15-1.82,0.25c-0.71,0.18-1.52,0.38-2.43,0.61c-1.81,0.49-3.94,1.31-6.28,2.48
		c-0.6,0.26-1.15,0.65-1.76,0.98c-0.59,0.37-1.23,0.69-1.82,1.12c-1.19,0.85-2.45,1.72-3.63,2.81c-2.4,2.11-4.77,4.68-6.69,7.8
		c-1.94,3.1-3.52,6.66-4.46,10.53c-0.21,0.98-0.49,1.92-0.59,2.97c-0.07,0.51-0.13,1.03-0.2,1.54c-0.07,0.52-0.14,1.04-0.14,1.51
		l-0.05,1.46l-0.03,0.73l-0.01,0.37l0,0.04c0,0.18,0,0.08,0,0.13l0.01,0.1l0.01,0.19c0.06,1.03,0.12,2.06,0.19,3.1
		c0.46,4.14,1.66,8.26,3.57,12.01c3.79,7.53,10.37,13.49,17.61,16.47c3.61,1.5,7.33,2.34,10.92,2.62c0.86,0.03,1.72,0.05,2.55,0.08
		l0.31,0.01l0.21,0.01l0.16-0.01l0.64-0.04c0.42-0.03,0.84-0.06,1.26-0.09c1.68-0.04,3.25-0.44,4.78-0.68c3-0.74,5.7-1.67,7.91-2.84
		c0.56-0.29,1.09-0.56,1.61-0.83c0.51-0.28,0.97-0.61,1.43-0.89c0.91-0.59,1.75-1.11,2.43-1.71c0.7-0.57,1.34-1.06,1.87-1.51
		c0.49-0.48,0.91-0.88,1.24-1.21c0.67-0.66,1.03-1.01,1.03-1.01L75.82,77.3z"/>
	<g>
		<path class="st0" d="M151.29,93.31v-0.05c0-4.97,3.8-9.18,9.15-9.18c3.09,0,4.99,0.86,6.82,2.41l-1.98,2.36
			c-1.37-1.17-2.71-1.9-4.97-1.9c-3.27,0-5.75,2.86-5.75,6.26v0.05c0,3.65,2.41,6.34,6.03,6.34c1.67,0,3.19-0.53,4.28-1.34v-3.32
			h-4.54v-2.71h7.55v7.45c-1.75,1.5-4.26,2.76-7.4,2.76C154.94,102.43,151.29,98.48,151.29,93.31z"/>
		<path class="st0" d="M173.41,84.39h7.91c2.23,0,3.98,0.66,5.12,1.77c0.94,0.96,1.47,2.28,1.47,3.83v0.05
			c0,2.91-1.75,4.66-4.23,5.37l4.79,6.72h-3.67l-4.36-6.18h-0.05h-3.85v6.18h-3.12V84.39z M181.09,93.18c2.23,0,3.65-1.17,3.65-2.97
			v-0.05c0-1.9-1.37-2.94-3.67-2.94h-4.54v5.96H181.09z"/>
		<path class="st0" d="M191.93,93.31v-0.05c0-4.99,3.85-9.18,9.3-9.18c5.45,0,9.25,4.13,9.25,9.12v0.05c0,4.99-3.85,9.17-9.3,9.17
			C195.73,102.43,191.93,98.3,191.93,93.31z M207.21,93.31v-0.05c0-3.45-2.51-6.31-6.03-6.31c-3.52,0-5.98,2.81-5.98,6.26v0.05
			c0,3.45,2.51,6.31,6.03,6.31C204.75,99.57,207.21,96.76,207.21,93.31z"/>
		<path class="st0" d="M215.26,94.6V84.39h3.12v10.09c0,3.29,1.7,5.07,4.49,5.07c2.76,0,4.46-1.67,4.46-4.94V84.39h3.12v10.06
			c0,5.3-2.99,7.96-7.63,7.96C218.2,102.41,215.26,99.75,215.26,94.6z"/>
		<path class="st0" d="M236.22,84.39h7c4.13,0,6.74,2.36,6.74,5.93v0.05c0,3.98-3.19,6.06-7.1,6.06h-3.52v5.7h-3.12V84.39z
			 M242.96,93.61c2.36,0,3.83-1.32,3.83-3.17v-0.05c0-2.08-1.5-3.17-3.83-3.17h-3.62v6.39H242.96z"/>
	</g>
	<g>
		<path class="st2" d="M254.7,89.66c-0.73,0-1.37-0.32-1.79-0.81l0.54-0.53c0.34,0.37,0.83,0.6,1.31,0.6c0.7,0,1.04-0.25,1.04-0.73
			c0-0.39-0.29-0.58-1.14-0.83c-1.06-0.32-1.57-0.58-1.57-1.48c0-0.87,0.73-1.4,1.66-1.4c0.68,0,1.2,0.25,1.65,0.68l-0.53,0.54
			c-0.32-0.32-0.67-0.48-1.17-0.48c-0.59,0-0.84,0.29-0.84,0.62c0,0.35,0.23,0.52,1.1,0.78c0.99,0.3,1.61,0.62,1.61,1.52
			C256.56,89.04,255.99,89.66,254.7,89.66z"/>
		<path class="st2" d="M261.19,89.58v-2.66c0-0.3,0.01-0.74,0.01-0.88c-0.06,0.14-0.2,0.5-0.32,0.79l-1.22,2.83l-1.21-2.83
			c-0.12-0.29-0.27-0.65-0.32-0.79c0.01,0.14,0.01,0.58,0.01,0.88v2.66h-0.71v-5.03h0.78l1.13,2.68c0.12,0.29,0.28,0.65,0.34,0.86
			c0.07-0.21,0.22-0.57,0.34-0.86l1.11-2.68h0.81v5.03H261.19z"/>
	</g>
	<g>
		<path class="st2" d="M85.41,47.78c-2.06,0-3.79-1.72-3.79-3.78c0-2.06,1.72-3.79,3.79-3.79c2.06,0,3.79,1.72,3.79,3.79
			C89.2,46.06,87.47,47.78,85.41,47.78z M82.11,75V49.84h6.61V75H82.11z"/>
		<path class="st2" d="M110.32,75V61.39c0-4.5-1.53-5.84-4.26-5.84c-2.73,0-4.31,1.34-4.31,5.7V75h-6.61V49.84h6.61v1.68
			c1.15-1.2,3.26-2.2,5.89-2.2c6.42,0,9.29,4.41,9.29,11.5V75H110.32z"/>
		<path class="st2" d="M137,75v-1.58c-1.25,1.1-2.92,2.11-5.32,2.11c-5.37,0-9.77-4.03-9.77-13.42c0-7.52,3.55-12.79,9.77-12.79
			c2.2,0,4.12,0.86,5.32,1.96v-7.91l6.61-3.31V75H137z M137,57.7c-1.01-1.39-2.54-2.16-4.46-2.16c-2.54,0-3.93,2.2-3.93,6.42
			c0,5.17,1.73,7.33,4.31,7.33c2.06,0,3.11-0.86,4.07-2.11V57.7z"/>
		<path class="st2" d="M165.08,63.12h-7.38V75H151V41.46h14.66c6.32,0,11.55,3.5,11.55,10.64
			C177.21,59.86,172.03,63.12,165.08,63.12z M165.42,47.98h-7.71v8.62h7.81c3.11,0,4.79-1.44,4.79-4.36
			C170.31,49.32,168.39,47.98,165.42,47.98z"/>
		<path class="st2" d="M190.24,75.53c-6.56,0-11.35-5.37-11.35-13.08s4.79-13.13,11.35-13.13c6.56,0,11.4,5.42,11.4,13.13
			S196.8,75.53,190.24,75.53z M190.24,55.69c-3.16,0-4.65,2.88-4.65,6.76c0,3.88,1.49,6.71,4.65,6.71c3.16,0,4.7-3.21,4.7-6.71
			C194.93,58.61,193.4,55.69,190.24,55.69z"/>
		<path class="st2" d="M210.04,47.78c-2.06,0-3.79-1.72-3.79-3.78c0-2.06,1.72-3.79,3.79-3.79c2.06,0,3.79,1.72,3.79,3.79
			C213.83,46.06,212.1,47.78,210.04,47.78z M206.73,75V49.84h6.61V75H206.73z"/>
		<path class="st2" d="M234.95,75V61.39c0-4.5-1.53-5.84-4.26-5.84c-2.73,0-4.31,1.34-4.31,5.7V75h-6.61V49.84h6.61v1.68
			c1.15-1.2,3.26-2.2,5.89-2.2c6.42,0,9.3,4.41,9.3,11.5V75H234.95z"/>
		<path class="st2" d="M261.38,73.99c-1.1,0.86-3.07,1.53-5.13,1.53c-4.07,0-6.71-3.16-6.71-7.57V56.07h-4.22v-6.23h4.22v-6.47
			l6.61-3.31v9.77h6.04v6.23h-6.04v10.11c0,2.4,0.86,3.02,2.44,3.02c1.2,0,2.11-0.53,3.74-1.92L261.38,73.99z"/>
	</g>
</g>
</svg>
